# Exported from ProBuilder
# http://www.procore3d.com/probuilder
# 11/5/2018 9:38:28 PM

mtllib ./Enemy1.mtl
o Enemy1

g Enemy1
v 0.6279889 -14.42272 -5.070201
v 1.488976 -13.07212 -4.839368
v 0.9410749 -10.96519 -4.986262
v 1.984697 -8.831244 -4.706465
v 0.5236257 -7.264549 -5.098181
v -2.842054 -8.074908 -6.000531
v -3.703043 -9.911723 -6.231364
v -3.181231 -10.45196 -6.091465
v -2.815964 -9.668614 -5.993536
v -2.398515 -10.3169 -5.881617
v -1.902794 -9.776663 -5.748712
v -1.850614 -10.3169 -5.734722
v -1.22444 -9.803676 -5.566843
v -1.093987 -10.58702 -5.531868
v -0.5721769 -9.992759 -5.39197
v -0.2851805 -11.55945 -5.315024
v -0.8591734 -11.18128 -5.468914
v -1.433164 -11.74854 -5.622803
v -1.824523 -11.34336 -5.727727
v -2.215881 -11.6675 -5.832651
v -2.476787 -11.23531 -5.902601
v -2.763783 -11.8836 -5.979545
v -1.850614 -12.85603 -5.734722
v -0.5721771 -13.6934 -5.391969
v -0.4939051 -14.44973 -5.370984
v -0.9374455 -14.80089 -5.489898
v 0.21054 -14.85491 -5.18212
v -3.165751 -8.074908 -4.79317
v -4.02674 -9.911723 -5.024003
v -3.139661 -9.668614 -4.786174
v -3.504929 -10.45196 -4.884103
v -2.226491 -9.776663 -4.541351
v -2.722212 -10.3169 -4.674255
v -1.548137 -9.803676 -4.359482
v -2.174311 -10.3169 -4.527361
v 0.1999286 -7.264549 -3.89082
v -0.895874 -9.992759 -4.184608
v 1.661 -8.831244 -3.499104
v 0.6173779 -10.96519 -3.778902
v -0.6088775 -11.55945 -4.107664
v 1.165279 -13.07212 -3.632007
v -0.8958741 -13.6934 -4.184608
v 0.3042918 -14.42272 -3.86284
v -0.8176022 -14.44973 -4.163623
v -0.113157 -14.85491 -3.974759
v -1.261143 -14.80089 -4.282537
v -1.756861 -11.74854 -4.415442
v -1.182871 -11.18128 -4.261553
v -2.174311 -12.85603 -4.527361
v -2.539578 -11.6675 -4.62529
v -3.08748 -11.8836 -4.772184
v -2.800484 -11.23531 -4.69524
v -2.148221 -11.34336 -4.520366
v -1.417684 -10.58702 -4.324507
v -0.5721769 -9.992759 -5.39197
v -1.093987 -10.58702 -5.531868
v -0.895874 -9.992759 -4.184608
v -1.417684 -10.58702 -4.324507
v -1.093987 -10.58702 -5.531868
v -1.22444 -9.803676 -5.566843
v -1.417684 -10.58702 -4.324507
v -1.548137 -9.803676 -4.359482
v -2.215881 -11.6675 -5.832651
v -1.824523 -11.34336 -5.727727
v -2.539578 -11.6675 -4.62529
v -2.148221 -11.34336 -4.520366
v -1.824523 -11.34336 -5.727727
v -1.433164 -11.74854 -5.622803
v -2.148221 -11.34336 -4.520366
v -1.756861 -11.74854 -4.415442
v -2.763783 -11.8836 -5.979545
v -2.476787 -11.23531 -5.902601
v -3.08748 -11.8836 -4.772184
v -2.800484 -11.23531 -4.69524
v -2.476787 -11.23531 -5.902601
v -2.215881 -11.6675 -5.832651
v -2.800484 -11.23531 -4.69524
v -2.539578 -11.6675 -4.62529
v -1.850614 -12.85603 -5.734722
v -2.763783 -11.8836 -5.979545
v -2.174311 -12.85603 -4.527361
v -3.08748 -11.8836 -4.772184
v -0.5721771 -13.6934 -5.391969
v -1.850614 -12.85603 -5.734722
v -0.8958741 -13.6934 -4.184608
v -2.174311 -12.85603 -4.527361
v -1.433164 -11.74854 -5.622803
v -0.8591734 -11.18128 -5.468914
v -1.756861 -11.74854 -4.415442
v -1.182871 -11.18128 -4.261553
v -0.8591734 -11.18128 -5.468914
v -0.2851805 -11.55945 -5.315024
v -1.182871 -11.18128 -4.261553
v -0.6088775 -11.55945 -4.107664
v 0.21054 -14.85491 -5.18212
v -0.9374455 -14.80089 -5.489898
v -0.113157 -14.85491 -3.974759
v -1.261143 -14.80089 -4.282537
v -0.9374455 -14.80089 -5.489898
v -0.4939051 -14.44973 -5.370984
v -1.261143 -14.80089 -4.282537
v -0.8176022 -14.44973 -4.163623
v 0.6279889 -14.42272 -5.070201
v 0.21054 -14.85491 -5.18212
v 0.3042918 -14.42272 -3.86284
v -0.113157 -14.85491 -3.974759
v -0.4939051 -14.44973 -5.370984
v -0.5721771 -13.6934 -5.391969
v -0.8176022 -14.44973 -4.163623
v -0.8958741 -13.6934 -4.184608
v 1.488976 -13.07212 -4.839368
v 0.6279889 -14.42272 -5.070201
v 1.165279 -13.07212 -3.632007
v 0.3042918 -14.42272 -3.86284
v 0.9410749 -10.96519 -4.986262
v 1.488976 -13.07212 -4.839368
v 0.6173779 -10.96519 -3.778902
v 1.165279 -13.07212 -3.632007
v -0.2851805 -11.55945 -5.315024
v -0.5721769 -9.992759 -5.39197
v -0.6088775 -11.55945 -4.107664
v -0.895874 -9.992759 -4.184608
v 1.984697 -8.831244 -4.706465
v 0.9410749 -10.96519 -4.986262
v 1.661 -8.831244 -3.499104
v 0.6173779 -10.96519 -3.778902
v 0.5236257 -7.264549 -5.098181
v 1.984697 -8.831244 -4.706465
v 0.1999286 -7.264549 -3.89082
v 1.661 -8.831244 -3.499104
v -2.842054 -8.074908 -6.000531
v 0.5236257 -7.264549 -5.098181
v -3.165751 -8.074908 -4.79317
v 0.1999286 -7.264549 -3.89082
v -1.22444 -9.803676 -5.566843
v -1.850614 -10.3169 -5.734722
v -1.548137 -9.803676 -4.359482
v -2.174311 -10.3169 -4.527361
v -1.850614 -10.3169 -5.734722
v -1.902794 -9.776663 -5.748712
v -2.174311 -10.3169 -4.527361
v -2.226491 -9.776663 -4.541351
v -1.902794 -9.776663 -5.748712
v -2.398515 -10.3169 -5.881617
v -2.226491 -9.776663 -4.541351
v -2.722212 -10.3169 -4.674255
v -2.398515 -10.3169 -5.881617
v -2.815964 -9.668614 -5.993536
v -2.722212 -10.3169 -4.674255
v -3.139661 -9.668614 -4.786174
v -2.815964 -9.668614 -5.993536
v -3.181231 -10.45196 -6.091465
v -3.139661 -9.668614 -4.786174
v -3.504929 -10.45196 -4.884103
v -3.181231 -10.45196 -6.091465
v -3.703043 -9.911723 -6.231364
v -3.504929 -10.45196 -4.884103
v -4.02674 -9.911723 -5.024003
v -3.703043 -9.911723 -6.231364
v -2.842054 -8.074908 -6.000531
v -4.02674 -9.911723 -5.024003
v -3.165751 -8.074908 -4.79317

vn 0.2589575 -3.222476E-08 -0.9658887
vn 0.2589574 -1.488673E-07 -0.9658888
vn 0.2589574 -3.347178E-07 -0.9658887
vn 0.2589573 1.96787E-07 -0.9658888
vn 0.2589576 2.447546E-07 -0.9658886
vn 0.2589579 -1.876943E-07 -0.9658887
vn 0.2589575 -4.219897E-07 -0.9658887
vn 0.2589575 -2.255965E-07 -0.9658888
vn 0.2589575 -3.241283E-07 -0.9658887
vn 0.2589576 5.26351E-07 -0.9658886
vn 0.2589576 -2.526025E-07 -0.9658886
vn 0.2589578 -3.967197E-07 -0.9658886
vn 0.2589578 1.418676E-08 -0.9658886
vn 0.2589573 1.479891E-07 -0.9658888
vn 0.2589574 1.289359E-07 -0.9658888
vn 0.2589575 -2.473942E-07 -0.9658887
vn 0.2589582 -3.447944E-07 -0.9658886
vn 0.2589578 -2.388768E-07 -0.9658886
vn 0.258957 -7.942022E-07 -0.9658889
vn 0.2589574 -1.571583E-07 -0.9658888
vn 0.258958 -8.529794E-07 -0.9658886
vn 0.2589577 -1.177948E-07 -0.9658887
vn 0.2589576 -1.186612E-07 -0.9658887
vn 0.2589577 -9.778704E-08 -0.9658887
vn 0.2589577 -2.794218E-07 -0.9658887
vn 0.2589576 -1.011012E-06 -0.9658886
vn 0.2589576 -9.268406E-07 -0.9658887
vn -0.2589578 1.348409E-07 0.9658887
vn -0.2589577 4.956884E-07 0.9658887
vn -0.2589576 3.853564E-07 0.9658887
vn -0.2589576 2.968377E-07 0.9658887
vn -0.2589574 4.51131E-07 0.9658888
vn -0.2589576 -5.526686E-07 0.9658886
vn -0.2589579 -2.205027E-08 0.9658886
vn -0.2589572 4.53394E-07 0.9658888
vn -0.2589577 -3.069145E-07 0.9658887
vn -0.2589574 -2.147278E-07 0.9658888
vn -0.2589573 -3.356955E-07 0.9658888
vn -0.2589573 1.245461E-07 0.9658887
vn -0.2589574 1.757801E-07 0.9658887
vn -0.2589574 2.547626E-07 0.9658887
vn -0.2589576 2.112451E-07 0.9658887
vn -0.2589576 2.859948E-07 0.9658887
vn -0.2589576 1.72584E-07 0.9658887
vn -0.2589574 1.278401E-07 0.9658887
vn -0.2589572 5.392064E-07 0.9658888
vn -0.2589576 1.38683E-07 0.9658887
vn -0.2589577 -2.387039E-07 0.9658887
vn -0.2589575 1.239586E-07 0.9658887
vn -0.2589574 1.644869E-07 0.9658887
vn -0.2589576 1.828456E-07 0.9658887
vn -0.2589577 7.363844E-07 0.9658886
vn -0.2589571 4.538301E-07 0.9658889
vn -0.2589578 3.403749E-07 0.9658886
vn 0.7147002 -0.6726723 0.1916132
vn 0.7147002 -0.6726722 0.1916132
vn 0.7147002 -0.6726723 0.1916132
vn 0.7147002 -0.6726723 0.1916132
vn -0.9518448 -0.1699069 -0.2551924
vn -0.9518448 -0.1699069 -0.2551925
vn -0.9518448 -0.169907 -0.2551924
vn -0.9518448 -0.1699069 -0.2551924
vn -0.6033885 0.7808667 -0.1617701
vn -0.6033882 0.7808669 -0.1617702
vn -0.6033888 0.7808664 -0.1617701
vn -0.6033885 0.7808667 -0.1617701
vn 0.6829866 0.7071066 0.1831107
vn 0.6829868 0.7071065 0.1831106
vn 0.6829864 0.7071068 0.1831107
vn 0.6829866 0.7071066 0.1831107
vn -0.878056 0.4166535 -0.2354094
vn -0.878056 0.4166535 -0.2354094
vn -0.878056 0.4166535 -0.2354094
vn -0.878056 0.4166535 -0.2354094
vn 0.8190722 0.5299986 0.2195955
vn 0.8190724 0.5299983 0.2195954
vn 0.819072 0.5299989 0.2195956
vn 0.8190722 0.5299986 0.2195955
vn -0.6925378 -0.6970779 -0.1856714
vn -0.6925378 -0.6970778 -0.1856714
vn -0.6925378 -0.6970779 -0.1856713
vn -0.6925378 -0.6970779 -0.1856714
vn -0.5164039 -0.8450792 -0.1384494
vn -0.5164039 -0.8450791 -0.1384494
vn -0.5164039 -0.8450792 -0.1384495
vn -0.5164039 -0.8450792 -0.1384494
vn -0.6669242 0.723354 -0.1788043
vn -0.6669242 0.7233541 -0.1788043
vn -0.6669244 0.7233539 -0.1788042
vn -0.6669242 0.723354 -0.1788043
vn 0.5185611 0.843662 0.1390277
vn 0.518561 0.8436621 0.1390278
vn 0.5185611 0.8436621 0.1390277
vn 0.5185611 0.843662 0.1390277
vn -0.04385854 -0.9989685 -0.01175861
vn -0.04385855 -0.9989686 -0.01175861
vn -0.04385855 -0.9989686 -0.01175861
vn -0.04385854 -0.9989685 -0.01175861
vn -0.5867281 0.7943587 -0.1573035
vn -0.5867281 0.7943587 -0.1573035
vn -0.5867281 0.7943587 -0.1573035
vn -0.5867281 0.7943587 -0.1573035
vn 0.682986 -0.7071072 0.1831106
vn 0.682986 -0.7071071 0.1831106
vn 0.6829859 -0.7071072 0.1831105
vn 0.682986 -0.7071072 0.1831106
vn -0.9603919 -0.1065335 -0.2574839
vn -0.9603919 -0.1065334 -0.257484
vn -0.9603919 -0.1065336 -0.2574839
vn -0.9603919 -0.1065335 -0.2574839
vn 0.8061401 -0.5508417 0.2161286
vn 0.8061401 -0.5508417 0.2161285
vn 0.8061401 -0.5508418 0.2161286
vn 0.8061401 -0.5508417 0.2161286
vn 0.9326773 0.2599733 0.2500536
vn 0.9326773 0.2599733 0.2500536
vn 0.9326773 0.2599733 0.2500536
vn 0.9326773 0.2599733 0.2500536
vn -0.9489726 -0.1863341 -0.2544224
vn -0.9489725 -0.1863341 -0.2544223
vn -0.9489726 -0.186334 -0.2544224
vn -0.9489726 -0.1863341 -0.2544224
vn 0.8617244 -0.4517253 0.2310308
vn 0.8617244 -0.4517252 0.2310308
vn 0.8617244 -0.4517253 0.2310309
vn 0.8617244 -0.4517253 0.2310308
vn 0.6948619 0.6945943 0.1862945
vn 0.6948619 0.6945943 0.1862945
vn 0.6948619 0.6945943 0.1862945
vn 0.6948619 0.6945943 0.1862945
vn -0.2187869 0.974008 -0.05865739
vn -0.2187869 0.974008 -0.05865744
vn -0.2187869 0.974008 -0.05865734
vn -0.2187869 0.974008 -0.05865739
vn 0.5995287 -0.7840468 0.1607355
vn 0.5995288 -0.7840468 0.1607355
vn 0.5995287 -0.7840467 0.1607355
vn 0.5995287 -0.7840468 0.1607355
vn -0.9610953 -0.0995023 -0.2576726
vn -0.9610953 -0.09950228 -0.2576726
vn -0.9610953 -0.0995023 -0.2576726
vn -0.9610953 -0.0995023 -0.2576726
vn 0.7002684 -0.6887498 0.1877441
vn 0.7002684 -0.6887499 0.187744
vn 0.7002684 -0.6887498 0.1877441
vn 0.7002684 -0.6887498 0.1877441
vn -0.8036681 -0.5546999 -0.2154658
vn -0.8036681 -0.5546999 -0.2154658
vn -0.8036681 -0.5546999 -0.2154658
vn -0.8036681 -0.5546999 -0.2154658
vn 0.8698331 -0.4347481 0.2332048
vn 0.8698331 -0.4347481 0.2332048
vn 0.8698331 -0.4347481 0.2332048
vn 0.8698331 -0.4347481 0.2332048
vn -0.6829863 -0.7071069 -0.1831105
vn -0.6829861 -0.707107 -0.1831103
vn -0.6829864 -0.7071068 -0.1831107
vn -0.6829863 -0.7071069 -0.1831105
vn -0.8689684 0.4365979 -0.2329726
vn -0.8689684 0.4365979 -0.2329726
vn -0.8689684 0.4365979 -0.2329726
vn -0.8689684 0.4365979 -0.2329726

vt 0 0
vt -0.8913937 1.350598
vt -0.3241427 3.457531
vt -1.404621 5.591476
vt 0.1080487 7.158171
vt 3.592591 6.347812
vt 4.483985 4.510997
vt 3.943746 3.970758
vt 3.565579 4.754106
vt 3.133388 4.105818
vt 2.62016 4.646058
vt 2.566137 4.105818
vt 1.917848 4.619045
vt 1.782789 3.835699
vt 1.242551 4.429962
vt 0.9454187 2.863268
vt 1.539683 3.241436
vt 2.133944 2.674184
vt 2.539125 3.079364
vt 2.944304 2.75522
vt 3.214424 3.187412
vt 3.511554 2.539125
vt 2.566137 1.566694
vt 1.242551 0.7293234
vt 1.161514 -0.02701188
vt 1.620719 -0.3781672
vt 0.4321914 -0.432191
vt -3.592591 6.347812
vt -4.483985 4.510997
vt -3.565579 4.754106
vt -3.943746 3.970758
vt -2.62016 4.646058
vt -3.133388 4.105818
vt -1.917848 4.619045
vt -2.566137 4.105818
vt -0.1080487 7.158171
vt -1.242551 4.429962
vt 1.404621 5.591476
vt 0.3241427 3.457531
vt -0.9454187 2.863268
vt 0.8913937 1.350598
vt -1.242551 0.7293234
vt -3.064056E-10 3.453734E-09
vt -1.161514 -0.02701187
vt -0.4321914 -0.432191
vt -1.620719 -0.3781672
vt -2.133944 2.674184
vt -1.539683 3.241436
vt -2.566137 1.566694
vt -2.944304 2.75522
vt -3.511554 2.539125
vt -3.214424 3.187412
vt -2.539125 3.079364
vt -1.782789 3.835699
vt 2.44208 -2.016764E-07
vt 1.638957 -2.016764E-07
vt 2.442079 1.25
vt 1.638957 1.25
vt -4.082836 -3.729737E-07
vt -4.87774 -3.729737E-07
vt -4.082836 1.25
vt -4.87774 1.25
vt 0.5779332 -2.384186E-07
vt 0.0590502 -4.768372E-07
vt 0.5779332 1.25
vt 0.0590502 1.25
vt 3.972872 -4.768372E-07
vt 3.39986 -2.384186E-07
vt 3.972872 1.25
vt 3.39986 1.25
vt -0.8451274 -2.384186E-07
vt -1.558263 -4.768372E-07
vt -0.8451274 1.25
vt -1.558263 1.25
vt 4.406561 -4.768372E-07
vt 3.8969 -2.384186E-07
vt 4.406561 1.25
vt 3.8969 1.25
vt -2.912109 -2.384186E-07
vt -4.268368 -2.384186E-07
vt -2.912109 1.25
vt -4.268368 1.25
vt -1.43998 -5.909166E-08
vt -3.006207 -2.379056E-07
vt -1.43998 1.25
vt -3.006207 1.25
vt -0.3028643 -2.384186E-07
vt -1.1244 -4.768372E-07
vt -0.3028643 1.25
vt -1.1244 1.25
vt 3.039217 -5.745305E-07
vt 2.334831 -3.361119E-07
vt 3.039217 1.249999
vt 2.334831 1.25
vt -0.4121209 5.080886E-08
vt -1.601875 5.080886E-08
vt -0.412121 1.25
vt -1.601876 1.25
vt 1.517149 1.121916E-07
vt 0.9390672 5.631225E-08
vt 1.517149 1.25
vt 0.9390673 1.25
vt 0 0
vt -0.6112106 5.960464E-08
vt -5.03861E-08 1.25
vt -0.6112107 1.25
vt -0.09688204 1.094682E-07
vt -0.8575462 4.613822E-08
vt -0.09688209 1.25
vt -0.8575463 1.25
vt 1.618239 -1.192093E-07
vt 0 0
vt 1.618239 1.25
vt -2.764713E-08 1.25
vt 3.254379 -5.884356E-07
vt 1.072421 -2.308077E-07
vt 3.254379 1.249999
vt 1.072421 1.25
vt -2.989286 -2.013766E-07
vt -4.583907 -4.397952E-07
vt -2.989286 1.25
vt -4.583907 1.25
vt 5.622978 -3.685551E-07
vt 3.231085 -3.685551E-07
vt 5.622978 1.25
vt 3.231085 1.25
vt 5.22465 6.388757E-07
vt 3.046876 -7.916358E-07
vt 5.22465 1.250001
vt 3.046876 1.249999
vt 2.061346 -9.536743E-07
vt -1.516183 9.536743E-07
vt 2.061346 1.249999
vt -1.516183 1.250001
vt 1.363366 -1.919945E-07
vt 0.5365175 -1.919945E-07
vt 1.363366 1.25
vt 0.5365175 1.25
vt -4.340779 -4.768372E-07
vt -4.883713 -4.768372E-07
vt -4.340779 1.25
vt -4.883713 1.25
vt 1.563754 -4.768372E-07
vt 0.8185953 -4.768372E-07
vt 1.563754 1.25
vt 0.8185953 1.25
vt -5.154338 -4.768372E-07
vt -5.933483 -4.768372E-07
vt -5.154338 1.25
vt -5.933483 1.25
vt 2.731192 -4.768372E-07
vt 1.861339 -4.768372E-07
vt 2.731192 1.25
vt 1.861339 1.25
vt -5.596399 -4.768372E-07
vt -6.360413 -4.768372E-07
vt -5.596399 1.25
vt -6.360413 1.25
vt -2.100652 -4.768372E-07
vt -4.142335 -9.536743E-07
vt -2.100652 1.25
vt -4.142335 1.249999

g Enemy1_0
usemtl Default_Prototype
f 57/57/57 58/58/58 56/56/56 55/55/55
f 61/61/61 62/62/62 60/60/60 59/59/59
f 65/65/65 66/66/66 64/64/64 63/63/63
f 69/69/69 70/70/70 68/68/68 67/67/67
f 73/73/73 74/74/74 72/72/72 71/71/71
f 77/77/77 78/78/78 76/76/76 75/75/75
f 81/81/81 82/82/82 80/80/80 79/79/79
f 85/85/85 86/86/86 84/84/84 83/83/83
f 89/89/89 90/90/90 88/88/88 87/87/87
f 93/93/93 94/94/94 92/92/92 91/91/91
f 97/97/97 98/98/98 96/96/96 95/95/95
f 101/101/101 102/102/102 100/100/100 99/99/99
f 105/105/105 106/106/106 104/104/104 103/103/103
f 109/109/109 110/110/110 108/108/108 107/107/107
f 113/113/113 114/114/114 112/112/112 111/111/111
f 117/117/117 118/118/118 116/116/116 115/115/115
f 121/121/121 122/122/122 120/120/120 119/119/119
f 125/125/125 126/126/126 124/124/124 123/123/123
f 129/129/129 130/130/130 128/128/128 127/127/127
f 133/133/133 134/134/134 132/132/132 131/131/131
f 137/137/137 138/138/138 136/136/136 135/135/135
f 141/141/141 142/142/142 140/140/140 139/139/139
f 145/145/145 146/146/146 144/144/144 143/143/143
f 149/149/149 150/150/150 148/148/148 147/147/147
f 153/153/153 154/154/154 152/152/152 151/151/151
f 157/157/157 158/158/158 156/156/156 155/155/155
f 161/161/161 162/162/162 160/160/160 159/159/159

g Enemy1_1
usemtl Default_Prototype
f 9/9/9 7/7/7 6/6/6
f 9/9/9 8/8/8 7/7/7
f 11/11/11 9/9/9 6/6/6
f 11/11/11 10/10/10 9/9/9
f 13/13/13 11/11/11 6/6/6
f 13/13/13 12/12/12 11/11/11
f 6/6/6 5/5/5 13/13/13
f 5/5/5 15/15/15 13/13/13
f 4/4/4 15/15/15 5/5/5
f 4/4/4 3/3/3 15/15/15
f 3/3/3 16/16/16 15/15/15
f 2/2/2 16/16/16 3/3/3
f 2/2/2 24/24/24 16/16/16
f 2/2/2 1/1/1 24/24/24
f 25/25/25 24/24/24 1/1/1
f 1/1/1 27/27/27 25/25/25
f 27/27/27 26/26/26 25/25/25
f 16/16/16 24/24/24 18/18/18
f 16/16/16 18/18/18 17/17/17
f 24/24/24 23/23/23 18/18/18
f 23/23/23 20/20/20 18/18/18
f 23/23/23 22/22/22 20/20/20
f 20/20/20 22/22/22 21/21/21
f 18/18/18 20/20/20 19/19/19
f 15/15/15 14/14/14 13/13/13
f 34/34/34 54/54/54 37/37/37
f 53/53/53 50/50/50 47/47/47
f 52/52/52 51/51/51 50/50/50
f 50/50/50 51/51/51 49/49/49
f 47/47/47 50/50/50 49/49/49
f 47/47/47 49/49/49 42/42/42
f 48/48/48 47/47/47 40/40/40
f 47/47/47 42/42/42 40/40/40
f 44/44/44 46/46/46 45/45/45
f 44/44/44 45/45/45 43/43/43
f 43/43/43 42/42/42 44/44/44
f 42/42/42 43/43/43 41/41/41
f 40/40/40 42/42/42 41/41/41
f 39/39/39 40/40/40 41/41/41
f 37/37/37 40/40/40 39/39/39
f 37/37/37 39/39/39 38/38/38
f 36/36/36 37/37/37 38/38/38
f 34/34/34 37/37/37 36/36/36
f 34/34/34 36/36/36 28/28/28
f 32/32/32 35/35/35 34/34/34
f 28/28/28 32/32/32 34/34/34
f 30/30/30 33/33/33 32/32/32
f 28/28/28 30/30/30 32/32/32
f 29/29/29 31/31/31 30/30/30
f 28/28/28 29/29/29 30/30/30

