# Exported from ProBuilder
# http://www.procore3d.com/probuilder
# 11/5/2018 9:41:40 PM

mtllib ./Enemy2.mtl
o Enemy2

g New Game Object
v 3.6225 -9.0647 -3.8244
v 4.864717 -8.374459 -3.824401
v 6.179546 -9.396769 -3.8244
v 5.861192 -11.7438 -3.824402
v 6.967242 -12.63282 -3.8244
v 4.691851 -12.25217 -3.824401
v 3.781391 -11.26428 -3.824401
v 3.590906 -10.75574 -3.8244
v 4.106829 -10.63512 -3.8244
v 4.982089 -10.71693 -3.824402
v 5.146037 -10.092 -3.8244
v 4.707419 -9.471356 -3.8244
v 3.993959 -9.854338 -3.8244
v 3.403144 -10.06255 -3.8244
v 3.257565 -9.390228 -3.8244
v 3.403144 -10.06255 -4.637065
v 3.257565 -9.390228 -4.637065
v 3.993959 -9.854338 -4.637065
v 3.6225 -9.0647 -4.637065
v 4.707419 -9.471356 -4.637065
v 4.864717 -8.374459 -4.637066
v 6.179546 -9.396769 -4.637065
v 5.146037 -10.092 -4.637065
v 5.861192 -11.7438 -4.637066
v 4.982089 -10.71693 -4.637066
v 4.691851 -12.25217 -4.637065
v 6.967241 -12.63282 -4.637065
v 3.781391 -11.26428 -4.637065
v 4.106829 -10.63512 -4.637065
v 3.590905 -10.75574 -4.637065
v 4.106829 -10.63512 -3.8244
v 3.590906 -10.75574 -3.8244
v 4.106829 -10.63512 -4.637065
v 3.590905 -10.75574 -4.637065
v 3.590906 -10.75574 -3.8244
v 3.781391 -11.26428 -3.824401
v 3.590905 -10.75574 -4.637065
v 3.781391 -11.26428 -4.637065
v 4.982089 -10.71693 -3.824402
v 4.106829 -10.63512 -3.8244
v 4.982089 -10.71693 -4.637066
v 4.106829 -10.63512 -4.637065
v 3.781391 -11.26428 -3.824401
v 4.691851 -12.25217 -3.824401
v 3.781391 -11.26428 -4.637065
v 4.691851 -12.25217 -4.637065
v 6.967242 -12.63282 -3.8244
v 5.861192 -11.7438 -3.824402
v 6.967241 -12.63282 -4.637065
v 5.861192 -11.7438 -4.637066
v 4.691851 -12.25217 -3.824401
v 6.967242 -12.63282 -3.8244
v 4.691851 -12.25217 -4.637065
v 6.967241 -12.63282 -4.637065
v 5.146037 -10.092 -3.8244
v 4.982089 -10.71693 -3.824402
v 5.146037 -10.092 -4.637065
v 4.982089 -10.71693 -4.637066
v 5.861192 -11.7438 -3.824402
v 6.179546 -9.396769 -3.8244
v 5.861192 -11.7438 -4.637066
v 6.179546 -9.396769 -4.637065
v 4.707419 -9.471356 -3.8244
v 5.146037 -10.092 -3.8244
v 4.707419 -9.471356 -4.637065
v 5.146037 -10.092 -4.637065
v 6.179546 -9.396769 -3.8244
v 4.864717 -8.374459 -3.824401
v 6.179546 -9.396769 -4.637065
v 4.864717 -8.374459 -4.637066
v 4.864717 -8.374459 -3.824401
v 3.6225 -9.0647 -3.8244
v 4.864717 -8.374459 -4.637066
v 3.6225 -9.0647 -4.637065
v 3.993959 -9.854338 -3.8244
v 4.707419 -9.471356 -3.8244
v 3.993959 -9.854338 -4.637065
v 4.707419 -9.471356 -4.637065
v 3.6225 -9.0647 -3.8244
v 3.257565 -9.390228 -3.8244
v 3.6225 -9.0647 -4.637065
v 3.257565 -9.390228 -4.637065
v 3.257565 -9.390228 -3.8244
v 3.403144 -10.06255 -3.8244
v 3.257565 -9.390228 -4.637065
v 3.403144 -10.06255 -4.637065
v 3.403144 -10.06255 -3.8244
v 3.993959 -9.854338 -3.8244
v 3.403144 -10.06255 -4.637065
v 3.993959 -9.854338 -4.637065

vn 1.25503E-07 3.698117E-07 0.6450301
vn 9.701162E-08 7.174763E-07 0.6450301
vn 1.068947E-07 8.859207E-08 0.6450301
vn 1.248577E-07 2.100377E-07 0.6450301
vn 1.651111E-07 1.211998E-06 0.6450301
vn 3.455838E-07 7.147669E-07 0.6450301
vn 4.493697E-07 1.632999E-07 0.6450301
vn 1.474451E-08 -1.686827E-07 0.6450301
vn 5.926174E-07 -4.675912E-07 0.6450301
vn 2.436008E-07 1.210693E-07 0.6450301
vn -7.307946E-08 -3.684481E-07 0.6450301
vn 6.291399E-08 4.512253E-07 0.6450301
vn -1.94961E-08 -1.940999E-08 0.6450301
vn -4.815861E-08 -7.658552E-08 0.6450301
vn -2.167888E-08 -3.45706E-08 0.6450301
vn 6.02363E-08 4.231472E-08 -0.6450301
vn 5.12576E-08 2.806835E-08 -0.6450301
vn 3.55415E-08 1.588276E-08 -0.6450301
vn -1.17236E-07 -3.659227E-07 -0.6450301
vn -6.291398E-08 -4.512253E-07 -0.6450301
vn -9.701162E-08 -7.174763E-07 -0.6450301
vn -1.068947E-07 -8.859207E-08 -0.6450301
vn 7.307944E-08 3.684481E-07 -0.6450301
vn -1.248577E-07 -2.100377E-07 -0.6450301
vn -2.436008E-07 -1.210693E-07 -0.6450301
vn -3.455838E-07 -7.14767E-07 -0.6450301
vn -1.651111E-07 -1.211998E-06 -0.6450301
vn -4.493696E-07 -1.632999E-07 -0.6450301
vn -5.926174E-07 4.675911E-07 -0.6450301
vn -1.474451E-08 1.686827E-07 -0.6450301
vn -0.1468463 0.6280923 9.26974E-08
vn -0.1468463 0.6280923 9.035695E-08
vn -0.1468463 0.6280923 9.503785E-08
vn -0.1468463 0.6280923 9.26974E-08
vn -0.6040455 -0.2262586 5.736098E-08
vn -0.6040455 -0.2262586 5.875279E-08
vn -0.6040455 -0.2262586 5.596917E-08
vn -0.6040455 -0.2262586 5.736098E-08
vn 0.06002837 0.6422307 6.54365E-08
vn 0.06002837 0.6422307 6.823544E-08
vn 0.06002838 0.6422308 6.263757E-08
vn 0.06002837 0.6422307 6.54365E-08
vn -0.4743133 -0.4371394 3.545626E-08
vn -0.4743133 -0.4371394 5.78958E-08
vn -0.4743133 -0.4371393 1.301674E-08
vn -0.4743133 -0.4371394 3.545626E-08
vn 0.4041042 0.5027561 -3.379018E-08
vn 0.4041042 0.5027561 -3.379018E-08
vn 0.4041042 0.5027561 -3.379018E-08
vn 0.4041042 0.5027561 -3.379018E-08
vn -0.1064289 -0.6361892 -5.619085E-08
vn -0.1064289 -0.6361892 -5.115575E-08
vn -0.1064289 -0.6361892 -6.122595E-08
vn -0.1064289 -0.6361892 -5.619085E-08
vn -0.623917 0.1636814 1.642166E-07
vn -0.6239169 0.1636814 1.642166E-07
vn -0.623917 0.1636814 1.642166E-07
vn -0.623917 0.1636814 1.642166E-07
vn 0.6391771 -0.08669844 -1.585788E-07
vn 0.6391771 -0.08669844 -1.585788E-07
vn 0.6391771 -0.08669844 -1.585788E-07
vn 0.6391771 -0.08669844 -1.585788E-07
vn -0.5267619 -0.3722712 5.287217E-08
vn -0.5267618 -0.3722713 7.7793E-08
vn -0.5267619 -0.3722712 2.795132E-08
vn -0.5267619 -0.3722712 5.287217E-08
vn 0.3959295 0.5092188 -3.112382E-08
vn 0.3959295 0.5092188 -3.112381E-08
vn 0.3959295 0.5092188 -3.112382E-08
vn 0.3959295 0.5092188 -3.112382E-08
vn -0.3132961 0.5638345 9.735268E-08
vn -0.3132961 0.5638345 8.447248E-08
vn -0.3132961 0.5638345 1.102329E-07
vn -0.3132961 0.5638345 9.735268E-08
vn 0.3050739 -0.5683254 -1.11918E-07
vn 0.3050739 -0.5683254 -1.141967E-07
vn 0.3050739 -0.5683254 -1.096393E-07
vn 0.3050739 -0.5683254 -1.11918E-07
vn -0.429375 0.4813533 1.184587E-07
vn -0.429375 0.4813533 1.167152E-07
vn -0.429375 0.4813533 1.202023E-07
vn -0.429375 0.4813533 1.184587E-07
vn -0.6304206 -0.1365056 7.150089E-08
vn -0.6304206 -0.1365056 7.271166E-08
vn -0.6304206 -0.1365056 7.029012E-08
vn -0.6304206 -0.1365056 7.150089E-08
vn 0.2143963 -0.6083569 -9.639241E-08
vn 0.2143963 -0.6083569 -9.082434E-08
vn 0.2143963 -0.6083569 -1.019605E-07
vn 0.2143963 -0.6083569 -9.639241E-08

vt 0 0
vt -1.925828 -1.070091
vt -3.964227 0.5148106
vt -3.470678 4.153455
vt -5.185403 5.531713
vt -1.657831 4.941581
vt -0.2463308 3.410049
vt 0.0489812 2.621651
vt -0.7508624 2.43465
vt -2.107791 2.56148
vt -2.361962 1.592635
vt -1.681967 0.6304455
vt -0.5758792 1.224187
vt 0.3400713 1.546985
vt 0.5657645 0.5046712
vt -0.3400713 1.546985
vt -0.5657645 0.5046712
vt 0.5758792 1.224187
vt -3.43308E-09 -1.149546E-09
vt 1.681967 0.6304455
vt 1.925828 -1.070091
vt 3.964226 0.5148106
vt 2.361962 1.592635
vt 3.470678 4.153455
vt 2.107791 2.56148
vt 1.657831 4.941581
vt 5.185403 5.531713
vt 0.2463308 3.410049
vt 0.7508624 2.43465
vt -0.04898121 2.621651
vt 0.1768781 5.474932E-08
vt -0.6445349 2.931679E-07
vt 0.1768782 1.259887
vt -0.6445348 1.259887
vt -2.437892 1.52871E-07
vt -3.279783 3.912896E-07
vt -2.437892 1.259887
vt -3.279783 1.259887
vt 2.337022 1.66893E-06
vt 0.9741793 0
vt 2.337022 1.259888
vt 0.9741794 1.259887
vt -2.674468 3.28648E-07
vt -4.757236 -1.481892E-07
vt -2.674468 1.259887
vt -4.757236 1.259887
vt 7.507217 -9.536743E-07
vt 5.307246 1.430511E-06
vt 7.507217 1.259886
vt 5.307246 1.259888
vt -2.45046 -7.181997E-08
vt -6.027054 -1.025494E-06
vt -2.450461 1.259887
vt -6.027054 1.259886
vt -0.9411387 -3.576279E-07
vt -1.942769 1.66893E-06
vt -0.9411387 1.259886
vt -1.942769 1.259888
vt 3.649273 1.430511E-06
vt -0.02269218 -8.34465E-07
vt 3.649273 1.259888
vt -0.02269218 1.259886
vt -1.485578 -2.796066E-07
vt -2.663798 -2.796066E-07
vt -1.485578 1.259887
vt -2.663798 1.259887
vt 3.445556 -8.34465E-07
vt 0.863506 1.311302E-06
vt 3.445556 1.259886
vt 0.8635061 1.259888
vt 2.203159 1.311302E-06
vt 0 0
vt 2.203159 1.259888
vt 1.080231E-07 1.259887
vt 0.07159455 6.045779E-08
vt -1.183777 -2.971701E-07
vt 0.07159445 1.259887
vt -1.183778 1.259887
vt 0 0
vt -0.7581441 1.788139E-07
vt 9.457192E-08 1.259887
vt -0.758144 1.259887
vt -0.3735097 1.178027E-07
vt -1.439978 2.966166E-07
vt -0.3735098 1.259887
vt -1.439978 1.259887
vt 0.8349261 3.99959E-07
vt -0.1362402 4.233114E-08
vt 0.8349259 1.259887
vt -0.1362403 1.259887

g New Game Object_0
usemtl Default_Prototype
f 33/33/33 34/34/34 32/32/32 31/31/31
f 37/37/37 38/38/38 36/36/36 35/35/35
f 41/41/41 42/42/42 40/40/40 39/39/39
f 45/45/45 46/46/46 44/44/44 43/43/43
f 49/49/49 50/50/50 48/48/48 47/47/47
f 53/53/53 54/54/54 52/52/52 51/51/51
f 57/57/57 58/58/58 56/56/56 55/55/55
f 61/61/61 62/62/62 60/60/60 59/59/59
f 65/65/65 66/66/66 64/64/64 63/63/63
f 69/69/69 70/70/70 68/68/68 67/67/67
f 73/73/73 74/74/74 72/72/72 71/71/71
f 77/77/77 78/78/78 76/76/76 75/75/75
f 81/81/81 82/82/82 80/80/80 79/79/79
f 85/85/85 86/86/86 84/84/84 83/83/83
f 89/89/89 90/90/90 88/88/88 87/87/87

g New Game Object_1
usemtl Default_Prototype
f 13/13/13 15/15/15 14/14/14
f 13/13/13 1/1/1 15/15/15
f 12/12/12 1/1/1 13/13/13
f 2/2/2 1/1/1 12/12/12
f 3/3/3 2/2/2 12/12/12
f 3/3/3 12/12/12 11/11/11
f 3/3/3 11/11/11 4/4/4
f 4/4/4 11/11/11 10/10/10
f 4/4/4 10/10/10 6/6/6
f 5/5/5 4/4/4 6/6/6
f 10/10/10 7/7/7 6/6/6
f 9/9/9 7/7/7 10/10/10
f 9/9/9 8/8/8 7/7/7
f 28/28/28 30/30/30 29/29/29
f 25/25/25 28/28/28 29/29/29
f 26/26/26 28/28/28 25/25/25
f 26/26/26 24/24/24 27/27/27
f 26/26/26 25/25/25 24/24/24
f 25/25/25 23/23/23 24/24/24
f 24/24/24 23/23/23 22/22/22
f 23/23/23 20/20/20 22/22/22
f 20/20/20 21/21/21 22/22/22
f 20/20/20 19/19/19 21/21/21
f 18/18/18 19/19/19 20/20/20
f 17/17/17 19/19/19 18/18/18
f 16/16/16 17/17/17 18/18/18

