# Exported from ProBuilder
# http://www.procore3d.com/probuilder
# 11/5/2018 9:36:27 PM

mtllib ./Player.mtl
o Player

g Player
v -5.855577 -7.642056 -3.600763
v -4.966116 -9.034764 -3.600763
v -5.707273 -10.28949 -3.600765
v -4.814623 -10.98482 -3.600763
v -6.410416 -14.88393 -3.600765
v -8.086779 -10.98067 -3.600765
v -7.217615 -10.29691 -3.600765
v -7.883873 -9.071092 -3.600763
v -7.000025 -7.644057 -3.600765
v -6.410416 -14.88393 -4.880764
v -8.086779 -10.98067 -4.880765
v -4.814622 -10.98482 -4.880763
v -5.707273 -10.28949 -4.880765
v -7.217615 -10.2969 -4.880764
v -7.883872 -9.071092 -4.880763
v -4.966115 -9.034764 -4.880763
v -7.000025 -7.644057 -4.880765
v -5.855577 -7.642056 -4.880763
v -5.855577 -7.642056 -3.600763
v -7.000025 -7.644057 -3.600765
v -5.855577 -7.642056 -4.880763
v -7.000025 -7.644057 -4.880765
v -4.966116 -9.034764 -3.600763
v -5.855577 -7.642056 -3.600763
v -4.966115 -9.034764 -4.880763
v -5.855577 -7.642056 -4.880763
v -7.000025 -7.644057 -3.600765
v -7.883873 -9.071092 -3.600763
v -7.000025 -7.644057 -4.880765
v -7.883872 -9.071092 -4.880763
v -5.707273 -10.28949 -3.600765
v -4.966116 -9.034764 -3.600763
v -5.707273 -10.28949 -4.880765
v -4.966115 -9.034764 -4.880763
v -7.883873 -9.071092 -3.600763
v -7.217615 -10.29691 -3.600765
v -7.883872 -9.071092 -4.880763
v -7.217615 -10.2969 -4.880764
v -7.217615 -10.29691 -3.600765
v -8.086779 -10.98067 -3.600765
v -7.217615 -10.2969 -4.880764
v -8.086779 -10.98067 -4.880765
v -4.814623 -10.98482 -3.600763
v -5.707273 -10.28949 -3.600765
v -4.814622 -10.98482 -4.880763
v -5.707273 -10.28949 -4.880765
v -8.086779 -10.98067 -3.600765
v -6.410416 -14.88393 -3.600765
v -8.086779 -10.98067 -4.880765
v -6.410416 -14.88393 -4.880764
v -6.410416 -14.88393 -3.600765
v -4.814623 -10.98482 -3.600763
v -6.410416 -14.88393 -4.880764
v -4.814622 -10.98482 -4.880763

vn -1.662214E-06 -9.92717E-07 0.9999999
vn -3.109148E-07 -1.474044E-07 0.9999999
vn -1.0327E-07 -4.154816E-07 0.9999999
vn -5.901003E-07 9.561042E-08 0.9999999
vn -5.905316E-07 -2.444436E-07 0.9999999
vn -5.418928E-07 5.227557E-08 0.9999999
vn 1.662884E-07 -9.618922E-07 0.9999999
vn 5.440327E-09 -2.048078E-07 0.9999999
vn -4.991202E-07 7.08307E-07 0.9999999
vn 5.905316E-07 2.444436E-07 -0.9999999
vn 5.418928E-07 -5.227555E-08 -0.9999999
vn 5.901003E-07 -9.561042E-08 -0.9999999
vn 1.0327E-07 4.154816E-07 -0.9999999
vn -1.662884E-07 9.618922E-07 -0.9999999
vn -5.552806E-09 2.13845E-07 -0.9999999
vn 3.019381E-07 1.473865E-07 -0.9999999
vn 4.844476E-07 -7.083362E-07 -0.9999999
vn 1.610228E-06 9.381171E-07 -0.9999999
vn -0.001748688 0.9999985 9.53497E-08
vn -0.001748688 0.9999983 9.541794E-08
vn -0.001748688 0.9999985 9.528145E-08
vn -0.001748688 0.9999985 9.53497E-08
vn 0.8427854 0.5382497 3.759895E-07
vn 0.8427854 0.5382497 3.624137E-07
vn 0.8427854 0.5382498 3.895655E-07
vn 0.8427854 0.5382497 3.759895E-07
vn -0.8501465 0.5265461 -2.083227E-07
vn -0.8501466 0.5265461 -1.784998E-07
vn -0.8501465 0.5265461 -2.381456E-07
vn -0.8501465 0.5265461 -2.083227E-07
vn 0.861008 -0.5085914 2.784017E-07
vn 0.861008 -0.5085914 2.950188E-07
vn 0.8610079 -0.5085914 2.617846E-07
vn 0.861008 -0.5085914 2.784017E-07
vn -0.8786082 -0.4775433 -3.568611E-07
vn -0.8786082 -0.4775433 -3.584756E-07
vn -0.8786082 -0.4775433 -3.552466E-07
vn -0.8786082 -0.4775433 -3.568611E-07
vn -0.6182989 0.7859429 -1.007669E-07
vn -0.6182989 0.7859429 -8.529083E-08
vn -0.6182989 0.7859429 -1.162429E-07
vn -0.6182989 0.7859429 -1.007669E-07
vn 0.6145191 0.788902 3.071951E-07
vn 0.614519 0.788902 3.116945E-07
vn 0.6145191 0.788902 3.026957E-07
vn 0.6145191 0.788902 3.071951E-07
vn -0.9188433 -0.3946225 -3.611438E-07
vn -0.9188433 -0.3946225 -3.632647E-07
vn -0.9188433 -0.3946225 -3.590229E-07
vn -0.9188433 -0.3946225 -3.611438E-07
vn 0.9254884 -0.3787758 2.820873E-07
vn 0.9254885 -0.3787757 2.735434E-07
vn 0.9254884 -0.3787758 2.906311E-07
vn 0.9254884 -0.3787758 2.820873E-07

vt -0.1013732 -0.2954254
vt -0.9908347 1.097283
vt -0.2496772 2.352009
vt -1.142328 3.047343
vt 0.4534655 6.946453
vt 2.129828 3.043193
vt 1.260664 2.359424
vt 1.926922 1.133611
vt 1.043075 -0.2934241
vt -0.4534655 6.946453
vt -2.129828 3.043193
vt 1.142328 3.047343
vt 0.2496772 2.352009
vt -1.260664 2.359424
vt -1.926922 1.133611
vt 0.9908347 1.097283
vt -1.043075 -0.2934241
vt 0.1013732 -0.2954254
vt 0.1018897 8.242151E-08
vt -1.04256 1.810956E-06
vt 0.1018899 1.28
vt -1.04256 1.280002
vt 1.458091 -7.124208E-08
vt -0.1944161 1.373742E-07
vt 1.458091 1.28
vt -0.1944159 1.28
vt -0.2997735 1.640289E-06
vt -1.978348 -6.544897E-07
vt -0.2997734 1.280002
vt -1.978348 1.279999
vt 1.898114 1.699266E-06
vt 0.4408396 1.495448E-07
vt 1.898114 1.280002
vt 0.4408394 1.28
vt -0.07581089 -8.424976E-07
vt -1.470988 5.880138E-07
vt -0.075811 1.279999
vt -1.470988 1.280001
vt -2.44964 1.077468E-06
vt -3.555526 1.077468E-06
vt -2.44964 1.280001
vt -3.555526 1.280001
vt 2.773835 -6.716617E-07
vt 1.642325 1.235687E-06
vt 2.773835 1.279999
vt 1.642325 1.280001
vt -1.955739 4.132079E-07
vt -6.203754 -6.362923E-08
vt -1.955739 1.28
vt -6.203754 1.28
vt 6.600624 9.057164E-07
vt 2.387595 -4.795799E-08
vt 6.600624 1.280001
vt 2.387595 1.28

g Player_0
usemtl Default_Prototype
f 21/21/21 22/22/22 20/20/20 19/19/19
f 25/25/25 26/26/26 24/24/24 23/23/23
f 29/29/29 30/30/30 28/28/28 27/27/27
f 33/33/33 34/34/34 32/32/32 31/31/31
f 37/37/37 38/38/38 36/36/36 35/35/35
f 41/41/41 42/42/42 40/40/40 39/39/39
f 45/45/45 46/46/46 44/44/44 43/43/43
f 49/49/49 50/50/50 48/48/48 47/47/47
f 53/53/53 54/54/54 52/52/52 51/51/51

g Player_1
usemtl Default_Prototype
f 4/4/4 6/6/6 5/5/5
f 4/4/4 3/3/3 6/6/6
f 7/7/7 6/6/6 3/3/3
f 8/8/8 7/7/7 3/3/3
f 8/8/8 3/3/3 2/2/2
f 9/9/9 8/8/8 2/2/2
f 1/1/1 9/9/9 2/2/2
f 16/16/16 17/17/17 18/18/18
f 16/16/16 15/15/15 17/17/17
f 16/16/16 13/13/13 15/15/15
f 13/13/13 14/14/14 15/15/15
f 13/13/13 11/11/11 14/14/14
f 11/11/11 13/13/13 12/12/12
f 10/10/10 11/11/11 12/12/12

