# Exported from ProBuilder
# http://www.procore3d.com/probuilder
# 11/5/2018 9:29:31 PM

mtllib ./Shard_Item.mtl
o Shard Item

g New Game Object
v -28.15993 27.71573 3.913696
v -24.1131 24.65604 3.913696
v -26.71282 12.20285 3.9137
v -29.50051 20.64128 3.9137
v -29.35292 23.02766 3.913696
v -30.97116 24.68603 3.913696
v -28.15993 27.71573 -0.8517185
v -24.1131 24.65603 -0.8517182
v -29.35292 23.02766 -0.8517184
v -29.50051 20.64128 -0.8517148
v -26.71282 12.20285 -0.8517148
v -30.97116 24.68603 -0.8517182
v -30.97116 24.68603 3.913696
v -29.35292 23.02766 3.913696
v -30.97116 24.68603 -0.8517182
v -29.35292 23.02766 -0.8517184
v -28.15993 27.71573 3.913696
v -30.97116 24.68603 3.913696
v -28.15993 27.71573 -0.8517185
v -30.97116 24.68603 -0.8517182
v -26.71282 12.20285 3.9137
v -24.1131 24.65604 3.913696
v -26.71282 12.20285 -0.8517148
v -24.1131 24.65603 -0.8517182
v -29.50051 20.64128 3.9137
v -26.71282 12.20285 3.9137
v -29.50051 20.64128 -0.8517148
v -26.71282 12.20285 -0.8517148
v -29.35292 23.02766 3.913696
v -29.50051 20.64128 3.9137
v -29.35292 23.02766 -0.8517184
v -29.50051 20.64128 -0.8517148
v -24.1131 24.65604 3.913696
v -28.15993 27.71573 3.913696
v -24.1131 24.65603 -0.8517182
v -28.15993 27.71573 -0.8517185

vn -4.5131E-10 1.602186E-08 1
vn 2.583578E-07 3.243052E-07 1
vn 5.292406E-07 1.810322E-07 1
vn 3.479392E-07 4.243214E-07 1
vn -1.354031E-07 4.387479E-07 1
vn 3.289096E-08 7.537097E-09 1
vn 4.443659E-10 -1.760935E-08 -1
vn -2.178211E-07 -3.209626E-07 -1
vn 1.481978E-07 -4.40689E-07 -1
vn -3.104907E-07 -4.15188E-07 -1
vn -4.937285E-07 -1.693005E-07 -1
vn -1.510405E-07 2.093968E-08 -1
vn -0.7157135 -0.6983941 2.861109E-07
vn -0.7157135 -0.698394 2.775855E-07
vn -0.7157135 -0.6983941 2.946363E-07
vn -0.7157135 -0.6983941 2.861109E-07
vn -0.7330425 0.6801829 -1.561457E-07
vn -0.7330426 0.6801829 -1.779251E-07
vn -0.7330425 0.6801829 -1.343663E-07
vn -0.7330425 0.6801829 -1.561457E-07
vn 0.9788971 -0.2043537 -3.56283E-08
vn 0.9788972 -0.2043538 -3.856311E-08
vn 0.9788971 -0.2043537 -3.269349E-08
vn 0.9788971 -0.2043537 -3.56283E-08
vn -0.9495277 -0.3136834 2.063629E-07
vn -0.9495277 -0.3136834 2.175444E-07
vn -0.9495277 -0.3136834 1.951813E-07
vn -0.9495277 -0.3136834 2.063629E-07
vn -0.9980929 0.06172989 7.955834E-08
vn -0.9980929 0.06172989 7.895786E-08
vn -0.9980929 0.0617299 8.015882E-08
vn -0.9980929 0.06172989 7.955834E-08
vn 0.6030955 0.797669 -3.234186E-07
vn 0.6030955 0.7976691 -3.31768E-07
vn 0.6030955 0.7976691 -3.150693E-07
vn 0.6030955 0.797669 -3.234186E-07

vt -0.0003833771 0.08317376
vt 4.046444 -2.976521
vt 1.446728 -15.4297
vt -1.340969 -6.991273
vt -1.193377 -4.604891
vt -2.811611 -2.946526
vt 0.0003834375 0.08317371
vt -4.046444 -2.976521
vt 1.193377 -4.604891
vt 1.340969 -6.991273
vt -1.446728 -15.4297
vt 2.811611 -2.946526
vt -0.1452561 1.098771E-06
vt -2.462336 1.337189E-06
vt -0.1452565 4.765415
vt -2.462337 4.765416
vt 0.06070914 -1.047991E-08
vt -4.072339 2.353893E-07
vt 0.06070822 4.765414
vt -4.07234 4.765414
vt 14.80845 -2.168048E-06
vt 2.086802 -2.228073E-08
vt 14.80845 4.765412
vt 2.086803 4.765414
vt -6.217768 -2.31408E-06
vt -15.10475 -1.360405E-06
vt -6.217768 4.765412
vt -15.10475 4.765413
vt -4.669776 5.562017E-07
vt -7.060718 -2.781658E-06
vt -4.669777 4.765415
vt -7.060719 4.765411
vt 5.022849 2.238749E-07
vt -0.05046753 -2.199431E-08
vt 5.02285 4.765414
vt -0.05046737 4.765414

g New Game Object_0
usemtl Default_Prototype
f 15/15/15 16/16/16 14/14/14 13/13/13
f 19/19/19 20/20/20 18/18/18 17/17/17
f 23/23/23 24/24/24 22/22/22 21/21/21
f 27/27/27 28/28/28 26/26/26 25/25/25
f 31/31/31 32/32/32 30/30/30 29/29/29
f 35/35/35 36/36/36 34/34/34 33/33/33

g New Game Object_1
usemtl Default_Prototype
f 5/5/5 2/2/2 1/1/1
f 4/4/4 2/2/2 5/5/5
f 3/3/3 2/2/2 4/4/4
f 6/6/6 5/5/5 1/1/1
f 7/7/7 9/9/9 12/12/12
f 10/10/10 8/8/8 11/11/11
f 9/9/9 8/8/8 10/10/10
f 7/7/7 8/8/8 9/9/9

